<svg xmlns="http://www.w3.org/2000/svg" viewBox="0 0 240 110" width="240" height="110" xmlns:c2pa="http://c2pa.org/manifest"><metadata><c2pa:manifest>AAAWgmp1bWIAAAAeanVtZGMycGEAEQAQgAAAqgA4m3EDYzJwYQAAABZcanVtYgAAAEdqdW1kYzJtYQARABCAAACqADibcQN1cm46YzJwYTo5YWI3NjU4Ni03NWI4LTQyZWItOGM0OS0wODUxMzZmOTFkMWIAAAADl2p1bWIAAAApanVtZGMyYXMAEQAQgAAAqgA4m3EDYzJwYS5hc3NlcnRpb25zAAAAALxqdW1iAAAARGp1bWRjYm9yABEAEIAAAKoAOJtxE2MycGEuaW5ncmVkaWVudC52MwAAAAAYYzJzaE8WRmElupVH7tzpQ7CUsnsAAABwY2JvcqNpZGM6Zm9ybWF0bWltYWdlL3N2Zyt4bWxqaW5zdGFuY2VJRHgseG1wOmlpZDpmMTY4YTU1Zi00NDhjLTQ0YzctYjRmZi1kNjQ2MDhiOTMwMDhscmVsYXRpb25zaGlwaHBhcmVudE9mAAAB4mp1bWIAAABBanVtZGNib3IAEQAQgAAAqgA4m3ETYzJwYS5hY3Rpb25zLnYyAAAAABhjMnNoDGsuy5FSrhC/c+XyUdi21gAAAZljYm9yomdhY3Rpb25zgqJmYWN0aW9ua2MycGEub3BlbmVkanBhcmFtZXRlcnOha2luZ3JlZGllbnRzgaJjdXJseC1zZWxmI2p1bWJmPWMycGEuYXNzZXJ0aW9ucy9jMnBhLmluZ3JlZGllbnQudjNkaGFzaFggE4N8jrTkpySsqEKF71by7r4RQzS+wvuI9OBuCxJ4q/OkZmFjdGlvbngdY29tLmFudGhyb3BpYy5jbGF1ZGUucHJvdmlkZWRqcGFyYW1ldGVyc6F4H2NvbS5hbnRocm9waWMub3JpZ2luLWNvbmZpZGVuY2VndW5rbm93bmtkZXNjcmlwdGlvbnhmQ2xhdWRlIHByb3ZpZGVkIHRoaXMgZmlsZSBhdCB0aGUgcmVxdWVzdCBvZiBhIHVzZXIgYW5kIG1heSBoYXZlIGNyZWF0ZWQgb3IgbW9kaWZpZWQgdGhlIGZpbGUgY29udGVudHMubXNvZnR3YXJlQWdlbnShZG5hbWVmQ2xhdWRlcmFsbEFjdGlvbnNJbmNsdWRlZPUAAADIanVtYgAAAEBqdW1kY2JvcgARABCAAACqADibcRNjMnBhLmhhc2guZGF0YQAAAAAYYzJzaF7o7yEdgQ5SsUlcOnGJuz8AAACAY2JvcqVjYWxnZnNoYTI1NmNwYWRNAAAAAAAAAAAAAAAAAGRoYXNoWCCHAtdNWJ6+XdoUuSPQLYshaFpzJz/pARYnJo242Gg6w2RuYW1lbmp1bWJmIG1hbmlmZXN0amV4Y2x1c2lvbnOBomVzdGFydBiWZmxlbmd0aBkeBAAAAj5qdW1iAAAAJ2p1bWRjMmNsABEAEIAAAKoAOJtxA2MycGEuY2xhaW0udjIAAAACD2Nib3KlY2FsZ2ZzaGEyNTZpc2lnbmF0dXJleE1zZWxmI2p1bWJmPS9jMnBhL3VybjpjMnBhOjlhYjc2NTg2LTc1YjgtNDJlYi04YzQ5LTA4NTEzNmY5MWQxYi9jMnBhLnNpZ25hdHVyZWppbnN0YW5jZUlEeCx4bXA6aWlkOjczNzQ4NzY5LTNjMjktNGNhZC04ZDAwLTNiYmE4ZDU1ZWEwMnJjcmVhdGVkX2Fzc2VydGlvbnODomN1cmx4LXNlbGYjanVtYmY9YzJwYS5hc3NlcnRpb25zL2MycGEuaW5ncmVkaWVudC52M2RoYXNoWCATg3yOtOSnJKyoQoXvVvLuvhFDNL7C+4j04G4LEnir86JjdXJseCpzZWxmI2p1bWJmPWMycGEuYXNzZXJ0aW9ucy9jMnBhLmFjdGlvbnMudjJkaGFzaFgge2HNq2XIWqTxonaFW4qROe3gfdXgHFrJb43PwrxbAZCiY3VybHgpc2VsZiNqdW1iZj1jMnBhLmFzc2VydGlvbnMvYzJwYS5oYXNoLmRhdGFkaGFzaFggOIIl/9Stq/uRePp1zGT4lQFQ0di80x1W0aoKv/jVTQ90Y2xhaW1fZ2VuZXJhdG9yX2luZm+jZG5hbWVvQW50aHJvcGljIEZpbGVzZ3ZlcnNpb25lMS4wLjBrc3BlY1ZlcnNpb25lMi40LjAAABA4anVtYgAAAChqdW1kYzJjcwARABCAAACqADibcQNjMnBhLnNpZ25hdHVyZQAAABAIY2JvctKEWQISogEmGCFZAgowggIGMIIBjaADAgECAhRA5aAK7sI50L64g/oGQgU9Z1UTADAKBggqhkjOPQQDAzBJMRcwFQYDVQQKEw5BbnRocm9waWMsIFBCQzEuMCwGA1UEAxMlQW50aHJvcGljIENvbnRlbnQgQ3JlZGVudGlhbHMgUm9vdCBDQTAeFw0yNjA4MDcxODQzNTZaFw0yODA4MDYxOTQzNTZaMEQxFzAVBgNVBAoTDkFudGhyb3BpYywgUEJDMSkwJwYDVQQDEyBBbnRocm9waWMgQ2xhdWRlIENvbnRlbnQgU2lnbmluZzBZMBMGByqGSM49AgEGCCqGSM49AwEHA0IABJh6CmvLUBgFFNU0vUKlOVtE6djd17L5SuwX0LemFisBM3dkd/3cyjxFA3Qo5S46fX0/ihY0VZ7mfb9KF703t5OjWDBWMA4GA1UdDwEB/wQEAwIHgDAVBgNVHSUEDjAMBgorBgEEAYPoXgIBMAwGA1UdEwEB/wQCMAAwHwYDVR0jBBgwFoAUzlHiBIFOZFsj+OPEz5o+nMHXXMIwCgYIKoZIzj0EAwMDZwAwZAIwMXMdFJ4BetLLVY7ORuE9noqbbAZOZn/aArXyTwFAZfKrPzxF2vPoJNf1+UCdg1XGAjBwX1zd9WGqYkqmL5SFqw1QySjr1zJfpJM9+1rdDwSPLMOPOjKuiXjoU/pUUeG9RwmhY3BhZFkNngAAAAAAAAAAAAAAAAAAAAAAAAAAAAAAAAAAAAAAAAAAAAAAAAAAAAAAAAAAAAAAAAAAAAAAAAAAAAAAAAAAAAAAAAAAAAAAAAAAAAAAAAAAAAAAAAAAAAAAAAAAAAAAAAAAAAAAAAAAAAAAAAAAAAAAAAAAAAAAAAAAAAAAAAAAAAAAAAAAAAAAAAAAAAAAAAAAAAAAAAAAAAAAAAAAAAAAAAAAAAAAAAAAAAAAAAAAAAAAAAAAAAAAAAAAAAAAAAAAAAAAAAAAAAAAAAAAAAAAAAAAAAAAAAAAAAAAAAAAAAAAAAAAAAAAAAAAAAAAAAAAAAAAAAAAAAAAAAAAAAAAAAAAAAAAAAAAAAAAAAAAAAAAAAAAAAAAAAAAAAAAAAAAAAAAAAAAAAAAAAAAAAAAAAAAAAAAAAAAAAAAAAAAAAAAAAAAAAAAAAAAAAAAAAAAAAAAAAAAAAAAAAAAAAAAAAAAAAAAAAAAAAAAAAAAAAAAAAAAAAAAAAAAAAAAAAAAAAAAAAAAAAAAAAAAAAAAAAAAAAAAAAAAAAAAAAAAAAAAAAAAAAAAAAAAAAAAAAAAAAAAAAAAAAAAAAAAAAAAAAAAAAAAAAAAAAAAAAAAAAAAAAAAAAAAAAAAAAAAAAAAAAAAAAAAAAAAAAAAAAAAAAAAAAAAAAAAAAAAAAAAAAAAAAAAAAAAAAAAAAAAAAAAAAAAAAAAAAAAAAAAAAAAAAAAAAAAAAAAAAAAAAAAAAAAAAAAAAAAAAAAAAAAAAAAAAAAAAAAAAAAAAAAAAAAAAAAAAAAAAAAAAAAAAAAAAAAAAAAAAAAAAAAAAAAAAAAAAAAAAAAAAAAAAAAAAAAAAAAAAAAAAAAAAAAAAAAAAAAAAAAAAAAAAAAAAAAAAAAAAAAAAAAAAAAAAAAAAAAAAAAAAAAAAAAAAAAAAAAAAAAAAAAAAAAAAAAAAAAAAAAAAAAAAAAAAAAAAAAAAAAAAAAAAAAAAAAAAAAAAAAAAAAAAAAAAAAAAAAAAAAAAAAAAAAAAAAAAAAAAAAAAAAAAAAAAAAAAAAAAAAAAAAAAAAAAAAAAAAAAAAAAAAAAAAAAAAAAAAAAAAAAAAAAAAAAAAAAAAAAAAAAAAAAAAAAAAAAAAAAAAAAAAAAAAAAAAAAAAAAAAAAAAAAAAAAAAAAAAAAAAAAAAAAAAAAAAAAAAAAAAAAAAAAAAAAAAAAAAAAAAAAAAAAAAAAAAAAAAAAAAAAAAAAAAAAAAAAAAAAAAAAAAAAAAAAAAAAAAAAAAAAAAAAAAAAAAAAAAAAAAAAAAAAAAAAAAAAAAAAAAAAAAAAAAAAAAAAAAAAAAAAAAAAAAAAAAAAAAAAAAAAAAAAAAAAAAAAAAAAAAAAAAAAAAAAAAAAAAAAAAAAAAAAAAAAAAAAAAAAAAAAAAAAAAAAAAAAAAAAAAAAAAAAAAAAAAAAAAAAAAAAAAAAAAAAAAAAAAAAAAAAAAAAAAAAAAAAAAAAAAAAAAAAAAAAAAAAAAAAAAAAAAAAAAAAAAAAAAAAAAAAAAAAAAAAAAAAAAAAAAAAAAAAAAAAAAAAAAAAAAAAAAAAAAAAAAAAAAAAAAAAAAAAAAAAAAAAAAAAAAAAAAAAAAAAAAAAAAAAAAAAAAAAAAAAAAAAAAAAAAAAAAAAAAAAAAAAAAAAAAAAAAAAAAAAAAAAAAAAAAAAAAAAAAAAAAAAAAAAAAAAAAAAAAAAAAAAAAAAAAAAAAAAAAAAAAAAAAAAAAAAAAAAAAAAAAAAAAAAAAAAAAAAAAAAAAAAAAAAAAAAAAAAAAAAAAAAAAAAAAAAAAAAAAAAAAAAAAAAAAAAAAAAAAAAAAAAAAAAAAAAAAAAAAAAAAAAAAAAAAAAAAAAAAAAAAAAAAAAAAAAAAAAAAAAAAAAAAAAAAAAAAAAAAAAAAAAAAAAAAAAAAAAAAAAAAAAAAAAAAAAAAAAAAAAAAAAAAAAAAAAAAAAAAAAAAAAAAAAAAAAAAAAAAAAAAAAAAAAAAAAAAAAAAAAAAAAAAAAAAAAAAAAAAAAAAAAAAAAAAAAAAAAAAAAAAAAAAAAAAAAAAAAAAAAAAAAAAAAAAAAAAAAAAAAAAAAAAAAAAAAAAAAAAAAAAAAAAAAAAAAAAAAAAAAAAAAAAAAAAAAAAAAAAAAAAAAAAAAAAAAAAAAAAAAAAAAAAAAAAAAAAAAAAAAAAAAAAAAAAAAAAAAAAAAAAAAAAAAAAAAAAAAAAAAAAAAAAAAAAAAAAAAAAAAAAAAAAAAAAAAAAAAAAAAAAAAAAAAAAAAAAAAAAAAAAAAAAAAAAAAAAAAAAAAAAAAAAAAAAAAAAAAAAAAAAAAAAAAAAAAAAAAAAAAAAAAAAAAAAAAAAAAAAAAAAAAAAAAAAAAAAAAAAAAAAAAAAAAAAAAAAAAAAAAAAAAAAAAAAAAAAAAAAAAAAAAAAAAAAAAAAAAAAAAAAAAAAAAAAAAAAAAAAAAAAAAAAAAAAAAAAAAAAAAAAAAAAAAAAAAAAAAAAAAAAAAAAAAAAAAAAAAAAAAAAAAAAAAAAAAAAAAAAAAAAAAAAAAAAAAAAAAAAAAAAAAAAAAAAAAAAAAAAAAAAAAAAAAAAAAAAAAAAAAAAAAAAAAAAAAAAAAAAAAAAAAAAAAAAAAAAAAAAAAAAAAAAAAAAAAAAAAAAAAAAAAAAAAAAAAAAAAAAAAAAAAAAAAAAAAAAAAAAAAAAAAAAAAAAAAAAAAAAAAAAAAAAAAAAAAAAAAAAAAAAAAAAAAAAAAAAAAAAAAAAAAAAAAAAAAAAAAAAAAAAAAAAAAAAAAAAAAAAAAAAAAAAAAAAAAAAAAAAAAAAAAAAAAAAAAAAAAAAAAAAAAAAAAAAAAAAAAAAAAAAAAAAAAAAAAAAAAAAAAAAAAAAAAAAAAAAAAAAAAAAAAAAAAAAAAAAAAAAAAAAAAAAAAAAAAAAAAAAAAAAAAAAAAAAAAAAAAAAAAAAAAAAAAAAAAAAAAAAAAAAAAAAAAAAAAAAAAAAAAAAAAAAAAAAAAAAAAAAAAAAAAAAAAAAAAAAAAAAAAAAAAAAAAAAAAAAAAAAAAAAAAAAAAAAAAAAAAAAAAAAAAAAAAAAAAAAAAAAAAAAAAAAAAAAAAAAAAAAAAAAAAAAAAAAAAAAAAAAAAAAAAAAAAAAAAAAAAAAAAAAAAAAAAAAAAAAAAAAAAAAAAAAAAAAAAAAAAAAAAAAAAAAAAAAAAAAAAAAAAAAAAAAAAAAAAAAAAAAAAAAAAAAAAAAAAAAAAAAAAAAAAAAAAAAAAAAAAAAAAAAAAAAAAAAAAAAAAAAAAAAAAAAAAAAAAAAAAAAAAAAAAAAAAAAAAAAAAAAAAAAAAAAAAAAAAAAAAAAAAAAAAAAAAAAAAAAAAAAAAAAAAAAAAAAAAAAAAAAAAAAAAAAAAAAAAAAAAAAAAAAAAAAAAAAAAAAAAAAAAAAAAAAAAAAAAAAAAAAAAAAAAAAAAAAAAAAAAAAAAAAAAAAAAAAAAAAAAAAAAAAAAAAAAAAAAAAAAAAAAAAAAAAAAAAAAAAAAAAAAAAAAAAAAAAAAAAAAAAAAAAAAAAAAAAAAAAAAAAAAAAAAAAAAAAAAAAAAAAAAAAAAAAAAAAAAAAAAAAAAAAAAAAAAAAAAAAAAAAAAAAAAAAAAAAAAAAAAAAAAAAAAAAAAAAAAAAAAAAAAAAAAAAAAAAAAAAAAAAAAAAAAAAAAAAAAAAAAAAAAAAAAAAAAAAAAAAAAAAAAAAAAAAAAAAAAAAAAAAAAAAAAAAAAAAAAAAAAAAAAAAAAAAAAAAAAAAAAAAAAAAAAAAAAAAAAAAAAAAAAAAAAAAAAAAAAAAAAAAAAAAAAAAAAAAAAAAAAAAAAAAAAAAAAAAAAAAAAAAAAAAAAAAAAAAAAAAAAAAAAAAAAAAAAAAAAAAAAAAAAAAAAAAAAAAAAAAAAAAAAAAAAAAAAAAAAAAAAAAAAAAAAAAAAAAAAAAAAAAAAAAAAAAAAAAAAAAAAAAAAAAAAAAAAAAAAAAAAAAAAAAAAAAAAAAAAAAAAAAAAAAAAAAAAAAAAAAAAAAAAAAAAAAAAAAAAAAAAAAAAAAAAAAAAAAAAAAAAAAAAAAAAAAAAAAAAAAAAAAAAAAAAAAAAAAAAAAAAAAAAAAAAAAAAAAAAAAAAAAAAAAAAAAAAAAAAAAAAAAAAAAAAAAAAAAAAAAAAAAAAAAAAAAAAAAAAAAAAAAAAAAAAAAAAAAAAAAAAAAAAAAAAAAAAAAAAAAAAAAAAAAAAAAAAAAAAAAAAAAAAAAAAAAAAAAAAAAAAAAAAAAAAAAAAAAAAAAAAAAAAAAAAAAAAAAAAAAAAAAAAAAAAAAAAAAAAAAAAAAAAAAAAAAAAAAAAAAAAAAAAAAAAAAAAAAAAAAAAAAAAAAAAAAAAAAAAAAAAAAAAAAAAAAAAAAAAAAAAAAAAAAAAAAAAAAAAAAAAAAAAAAAAAAAAAAAAAAAAAAAAAAAAAAAAAAAAAAAAAAAAAAAAAAAAAAAAAAAAAAAAAAAAAAAAAAAAAAAAAAAAAAAAAAAAAAAAAAAAAAAAAAAAAAAAAAAAAAAAAAAAAAAAAAAAAAAAAAAAAAAAAAAAAAAAAAAAAAAPZYQAVFKT8KNXxzxPhl2tmm7aTCGlIdFSkJ6anYWUIBISilthsAciWbYzMnR5y93NXKz7xTDzj4Y3oUDlFhmWO8glk=</c2pa:manifest></metadata>
  <title>Santa sleigh and reindeer team</title>
  <desc>Two reindeer with branching antlers and harness bells pull an ornate sleigh carrying Santa and a sack of gifts. Faces left.</desc>

  <!-- Inline the #rig group into your map SVG.
       Position with transform="translate(x,y)"; add scale(0.42) for map size.
       Reference it a second time anywhere with <use href="#rig"/>.
       Customizer colour: set fill on .sleigh-body and stroke on .sleigh-scroll. -->

  <g id="rig">

    <!-- rear reindeer, darker and dimmed for depth -->
    <g transform="translate(108,64)" opacity="0.8">
      <path d="M-7 3 C-13 9 -17 13 -22 12 M6 3 C12 9 16 14 21 13" stroke="#6E4A2E" stroke-width="2.6" fill="none" stroke-linecap="round"/>
      <ellipse cx="0" cy="0" rx="14.5" ry="6.4" fill="#8A5A33"/>
      <circle cx="10" cy="-1" r="6.8" fill="#7E5130"/>
      <circle cx="-9" cy="0" r="6" fill="#8A5A33"/>
      <path d="M-11 -3 Q-13 -9 -17 -13 L-12 -17 Q-8 -11 -5 -6 Z" fill="#8A5A33"/>
      <path d="M-14 -15 Q-19 -21 -26 -19 Q-31 -18 -30 -14.5 Q-29 -11.5 -23 -11.8 Q-16 -12 -14 -15 Z" fill="#96633A"/>
      <path d="M-16 -18 C-18 -24 -22 -26 -25 -31 M-18.5 -23 L-24 -25 M-13 -17 C-12 -24 -9 -27 -8 -32 M-12.5 -23 L-7 -25" stroke="#D8CAB0" stroke-width="1.6" fill="none" stroke-linecap="round"/>
      <circle cx="-30" cy="-15.5" r="2.2" fill="#C43F3E"/>
      <path d="M-5 4 C-9 11 -11 15 -16 15 M5 4 C9 11 11 15 16 16" stroke="#96633A" stroke-width="2.7" fill="none" stroke-linecap="round"/>
      <path d="M15 -4 Q22 -8 19 1" fill="#8A5A33"/>
    </g>

    <!-- lead reindeer: shaded coat, ear, eye, harness bells, red nose, hooves -->
    <g transform="translate(50,60)">
      <path d="M-7 3 C-13 9 -17 13 -22 12 M6 3 C12 9 16 14 21 13" stroke="#8C5C38" stroke-width="2.7" fill="none" stroke-linecap="round"/>
      <circle cx="-22" cy="12" r="1.7" fill="#40301F"/><circle cx="21" cy="13" r="1.7" fill="#40301F"/>
      <ellipse cx="0" cy="0" rx="15" ry="6.6" fill="#A9714B"/>
      <circle cx="10" cy="-1" r="7" fill="#9C6540"/>
      <circle cx="-9" cy="0" r="6.2" fill="#A9714B"/>
      <ellipse cx="-1" cy="3" rx="10" ry="2.6" fill="#C89A6E" opacity="0.65"/>
      <path d="M-11 -3 Q-13 -9 -17 -13 L-12 -17 Q-8 -11 -5 -6 Z" fill="#A9714B"/>
      <ellipse cx="-14" cy="-19.5" rx="3.4" ry="1.8" fill="#8C5C38" transform="rotate(-40 -14 -19.5)"/>
      <path d="M-14 -15 Q-19 -21 -26 -19 Q-31 -18 -30 -14.5 Q-29 -11.5 -23 -11.8 Q-16 -12 -14 -15 Z" fill="#B87F52"/>
      <path d="M-30 -14.5 Q-29 -11.5 -25 -11.8 Q-27.5 -13.6 -30 -14.5 Z" fill="#9C6540"/>
      <path d="M-16 -18 C-18 -24 -22 -26 -25 -31 M-18.5 -23 L-24 -25 M-21 -26.5 L-26 -29 M-13 -17 C-12 -24 -9 -27 -8 -32 M-12.5 -23 L-7 -25 M-10 -27 L-5 -29" stroke="#E8DCC8" stroke-width="1.7" fill="none" stroke-linecap="round"/>
      <circle cx="-22" cy="-16.5" r="1.5" fill="#FFFFFF"/><circle cx="-22.4" cy="-16.5" r="0.9" fill="#2C2C2A"/>
      <circle cx="-30" cy="-15.5" r="2.4" fill="#E24B4A"/><circle cx="-30.8" cy="-16.4" r="0.8" fill="#F09595"/>
      <path d="M-11 -6 Q-8 0 -9 5" stroke="#BA7517" stroke-width="2.2" fill="none"/>
      <circle cx="-10" cy="3.5" r="1.9" fill="#FAC775"/><circle cx="-10.6" cy="-0.5" r="1.5" fill="#FAC775"/>
      <path d="M-5 4 C-9 11 -11 15 -16 15 M5 4 C9 11 11 15 16 16" stroke="#B87F52" stroke-width="2.8" fill="none" stroke-linecap="round"/>
      <circle cx="-16" cy="15" r="1.7" fill="#40301F"/><circle cx="16" cy="16" r="1.7" fill="#40301F"/>
      <path d="M15 -4 Q22 -8 19 1" fill="#A9714B"/>
    </g>

    <!-- reins -->
    <path d="M155 41 Q128 31 100 39 Q80 45 32 40" stroke="#B5793E" stroke-width="1.7" fill="none" stroke-linecap="round"/>

    <g transform="translate(176,64)">
      <!-- runners, supports -->
      <path d="M-38 15 Q-49 15 -45 6 Q-41 0 -34 9 L36 9 Q44 9 44 0" stroke="#FAC775" stroke-width="2.8" fill="none" stroke-linecap="round"/>
      <path d="M-22 9 L-22 2 M22 9 L22 -1 M-20 9 L-8 2" stroke="#FAC775" stroke-width="1.8"/>
      <!-- body: recolour .sleigh-body fill and .sleigh-scroll stroke -->
      <path class="sleigh-body" d="M-32 5 L30 5 Q37 5 37 -4 L37 -16 Q37 -21 30 -21 L4 -21 Q-5 -21 -10 -13 L-27 -6 Q-34 -3 -32 5 Z" fill="#C0334E"/>
      <path d="M-32 5 L30 5 Q37 5 37 0 L-31.6 0 Z" fill="#2C0A14" opacity="0.3"/>
      <path class="sleigh-scroll" d="M-27 -6 Q-39 -12 -33 -21 Q-28 -27 -21 -21" stroke="#C0334E" stroke-width="3.6" fill="none" stroke-linecap="round"/>
      <path d="M-14 -6 C-8 -12 0 -10 2 -4 C3 0 -2 2 -4 -1 C-5 -3 -3 -5 -1 -4" stroke="#FAC775" stroke-width="1.2" fill="none" opacity="0.9" stroke-linecap="round"/>
      <path d="M-26 -7 L-8 -16 L30 -16" stroke="#FAC775" stroke-width="1.8" fill="none" stroke-linecap="round"/>
      <!-- gift sack -->
      <path d="M8 -21 Q6 -35 18 -36 Q30 -35 28 -21 Z" fill="#6B4A2F"/>
      <path d="M8 -21 Q6 -35 18 -36 Q22 -35 20 -21 Z" fill="#7D5838"/>
      <rect x="10" y="-33" width="8.5" height="6.5" rx="1" fill="#1D9E75"/>
      <path d="M14.2 -33 L14.2 -26.5 M10 -30 L18.5 -30" stroke="#FAC775" stroke-width="1.1"/>
      <rect x="20" y="-31" width="7" height="5.5" rx="1" fill="#D4537E"/>
      <path d="M23.5 -31 L23.5 -25.5" stroke="#FAEEDA" stroke-width="1"/>
      <!-- santa -->
      <path d="M-12 -14 Q-19 -13 -20 -9.5 L-13 -9 Z" fill="#3A2A20"/>
      <path d="M-11 -15 Q-14 -30 -2 -31 Q10 -30 7 -15 Z" fill="#E24B4A"/>
      <rect x="-11.5" y="-17" width="19" height="3.2" rx="1.6" fill="#FFFFFF"/>
      <rect x="-11" y="-24.5" width="18" height="4.2" fill="#3A2A20"/>
      <rect x="-3.6" y="-25" width="5.2" height="5.2" rx="1" fill="#FAC775"/>
      <path d="M-3 -28 Q-13 -28 -20 -24" stroke="#E24B4A" stroke-width="5.6" fill="none" stroke-linecap="round"/>
      <circle cx="-18.5" cy="-25" r="2.7" fill="#FFFFFF"/>
      <circle cx="-22" cy="-23.5" r="3" fill="#3A2A20"/>
      <circle cx="0" cy="-35" r="5.4" fill="#F0BFA0"/>
      <circle cx="-3.4" cy="-33.4" r="1.7" fill="#F0997B" opacity="0.75"/>
      <path d="M-5.4 -35 Q-6 -24 0 -24 Q6 -24 5.4 -35 Q0 -31 -5.4 -35 Z" fill="#FFFFFF"/>
      <ellipse cx="-2" cy="-33.4" rx="2.6" ry="1.4" fill="#FFFFFF"/>
      <ellipse cx="2" cy="-33.4" rx="2.6" ry="1.4" fill="#FFFFFF"/>
      <circle cx="-2.8" cy="-37.2" r="0.9" fill="#2C2C2A"/>
      <path d="M-6 -41 Q-3 -52 8 -50 Q14 -49 11 -43 Q9 -40.5 7.5 -41.5 Z" fill="#E24B4A"/>
      <rect x="-7.4" y="-42.8" width="15.5" height="4" rx="2" fill="#FFFFFF"/>
      <circle cx="12.6" cy="-43" r="3" fill="#FFFFFF"/>
    </g>

    <!-- sparkle trail -->
    <g fill="#FAC775" opacity="0.7">
      <path d="M226 46 l1.2 3 3 1.2 -3 1.2 -1.2 3 -1.2 -3 -3 -1.2 3 -1.2 Z"/>
      <path d="M235 62 l0.9 2.2 2.2 0.9 -2.2 0.9 -0.9 2.2 -0.9 -2.2 -2.2 -0.9 2.2 -0.9 Z"/>
      <path d="M222 74 l0.7 1.8 1.8 0.7 -1.8 0.7 -0.7 1.8 -0.7 -1.8 -1.8 -0.7 1.8 -0.7 Z"/>
    </g>

  </g>
</svg>
